<svg width="170" height="21" viewBox="0 0 170 21" fill="none" xmlns="http://www.w3.org/2000/svg">
<g clip-path="url(#clip0_1_27)">
<path d="M10.575 20.9428C9.06831 20.9428 7.67318 20.6857 6.38967 20.1715C5.10615 19.6381 3.98075 18.9048 3.01347 17.9714C2.06479 17.0191 1.32072 15.9047 0.781269 14.6286C0.260423 13.3524 0 11.9714 0 10.4857C0 8.98096 0.260423 7.60001 0.781269 6.34286C1.32072 5.06667 2.06479 3.96191 3.01347 3.02857C3.98075 2.09524 5.09685 1.36191 6.36177 0.828573C7.64528 0.29524 9.0311 0.028574 10.5192 0.028574C12.0817 0.028574 13.4862 0.285717 14.7325 0.800002C15.9788 1.29524 17.0764 1.99048 18.025 2.88572L14.6767 6.31429C14.2116 5.78096 13.635 5.3619 12.9468 5.05714C12.2585 4.75238 11.4494 4.6 10.5192 4.6C9.7194 4.6 8.98459 4.73333 8.31493 5.00001C7.66388 5.26667 7.09653 5.66667 6.61289 6.2C6.12924 6.71428 5.74791 7.33333 5.46888 8.05715C5.20846 8.78095 5.07825 9.59051 5.07825 10.4857C5.07825 11.3809 5.20846 12.1905 5.46888 12.9143C5.74791 13.6381 6.12924 14.2666 6.61289 14.8C7.09653 15.3142 7.66388 15.7143 8.31493 16C8.98459 16.2667 9.7194 16.4 10.5192 16.4C11.4494 16.4 12.2678 16.2572 12.9747 15.9715C13.6815 15.6667 14.2861 15.2381 14.7883 14.6857L18.1367 18.1143C17.1693 19.0095 16.0719 19.7048 14.8441 20.2C13.635 20.6952 12.212 20.9428 10.575 20.9428Z" fill="black"/>
<path d="M18.3544 20.6286L26.0276 0.371429H30.8547L38.4441 20.6286H33.2264L27.5064 3.6H29.32L23.4606 20.6286H18.3544Z" fill="black"/>
<path d="M40.2962 20.6286V0.371429H45.2907V20.6286H40.2962ZM44.2583 20.6286V16.2286H53.801V20.6286H44.2583Z" fill="black"/>
<path d="M56.1276 20.6286V0.371429H61.1221V20.6286H56.1276Z" fill="black"/>
<path d="M64.6291 20.6286V0.371429H69.6236V20.6286H64.6291ZM68.5913 13.0571V8.74286H78.385V13.0571H68.5913ZM68.5913 4.68571V0.371429H78.8314V4.68571H68.5913Z" fill="black"/>
<path d="M89.6308 21C88.1055 21 86.7011 20.7333 85.4175 20.2C84.1341 19.6667 83.0086 18.9238 82.0414 17.9714C81.0927 17.0191 80.3486 15.9047 79.8091 14.6286C79.2697 13.3334 79 11.9429 79 10.4571C79 8.97143 79.2604 7.6 79.7813 6.34286C80.3207 5.06667 81.0648 3.95238 82.0135 3C82.9621 2.04761 84.0783 1.31428 85.3618 0.800002C86.6453 0.266667 88.0497 0 89.575 0C91.1004 0 92.5049 0.266667 93.7885 0.800002C95.0715 1.31428 96.1882 2.04761 97.1368 3C98.0855 3.95238 98.8199 5.06667 99.3412 6.34286C99.8803 7.61905 100.15 9 100.15 10.4857C100.15 11.9714 99.8803 13.3524 99.3412 14.6286C98.8199 15.9047 98.0855 17.0286 97.1368 18C96.1882 18.9524 95.0715 19.6952 93.7885 20.2285C92.5235 20.7428 91.1376 21 89.6308 21ZM89.575 16.4286C90.6911 16.4286 91.6584 16.181 92.477 15.6858C93.2954 15.1904 93.9275 14.4952 94.3746 13.6C94.8207 12.7048 95.0442 11.6571 95.0442 10.4571C95.0442 9.58096 94.9137 8.78095 94.6535 8.05715C94.4112 7.33333 94.0487 6.71428 93.565 6.2C93.0813 5.66667 92.5048 5.25714 91.8352 4.97143C91.1655 4.68571 90.4122 4.54286 89.575 4.54286C88.459 4.54286 87.4916 4.79048 86.6732 5.28572C85.8548 5.7619 85.2223 6.44762 84.7759 7.34286C84.3294 8.2381 84.1062 9.2762 84.1062 10.4571C84.1062 11.3714 84.2271 12.2 84.4689 12.9429C84.7293 13.6667 85.1013 14.2953 85.585 14.8286C86.0686 15.3429 86.6453 15.7428 87.315 16.0285C87.9846 16.2952 88.738 16.4286 89.575 16.4286Z" fill="black"/>
<path d="M107.829 12.4286V8.77143H111.596C112.414 8.77143 113.038 8.57143 113.465 8.17143C113.912 7.75238 114.135 7.19048 114.135 6.48572C114.135 5.8 113.912 5.24762 113.465 4.82857C113.038 4.39048 112.414 4.17143 111.596 4.17143H107.829V0.371429H112.294C113.633 0.371429 114.804 0.628573 115.809 1.14286C116.832 1.65715 117.632 2.36191 118.209 3.25715C118.786 4.15238 119.074 5.2 119.074 6.4C119.074 7.6 118.776 8.65714 118.181 9.57142C117.604 10.4667 116.795 11.1714 115.753 11.6857C114.711 12.181 113.493 12.4286 112.099 12.4286H107.829ZM103.867 20.6286V0.371429H108.862V20.6286H103.867ZM114.582 20.6286L108.834 11.9429L113.326 10.8286L120.357 20.6286H114.582Z" fill="black"/>
<path d="M121.988 20.6286V0.371429H125.475L126.982 4.51428V20.6286H121.988ZM135.632 20.6286L124.08 5.6L125.475 0.371429L137.055 15.4L135.632 20.6286ZM135.632 20.6286L134.348 16.3714V0.371429H139.343V20.6286H135.632Z" fill="black"/>
<path d="M142.859 20.6286V0.371429H147.854V20.6286H142.859Z" fill="black"/>
<path d="M149.91 20.6286L157.583 0.371429H162.41L170 20.6286H164.783L159.062 3.6H160.876L155.017 20.6286H149.91Z" fill="black"/>
</g>
<defs>
<clipPath id="clip0_1_27">
<rect width="170" height="21" fill="white"/>
</clipPath>
</defs>
</svg>
